# xmcd
# Track frame offsets:
# 150
# 14850
# 26448
# 40960
# 55199
# 66052
# 79369
# 91568
# 104075
# 114075
# 129917
# 141593
# 166830
# 180018
#
# Disc length: 2577 seconds
# Revision: 2
# Processed by: cddbd v1.5.2PL0 Copyright (c) Steve Scherf et al.
# Submitted via: VisiTrax 2.11.2.271 - For more info visit www.synapsa.com
#
DISCID=b00a0f0e
DTITLE=Slim Dusty - Henry Lawson and Banjo Patterson Disc 1
DYEAR=1989
DGENRE=Australian Country
TTITLE0=Sweeney
TTITLE1=Middleton's Roustabout
TTITLE2=Bill
TTITLE3=A Word To Texas Jack
TTITLE4=As Good As New
TTITLE5=Since Then
TTITLE6=St. Peter
TTITLE7=Callaghan's Hotel
TTITLE8=A Mate Can Do No Wrong
TTITLE9=Men Who Come Behind
TTITLE10=Second Class, Wait Here
TTITLE11=Peter Anderson and Co
TTITLE12=Do You Think That I Do Not Know
TTITLE13=A Prouder Man Than You
EXTD=
EXTT0=
EXTT1=
EXTT2=
EXTT3=
EXTT4=
EXTT5=
EXTT6=
EXTT7=
EXTT8=
EXTT9=
EXTT10=
EXTT11=
EXTT12=
EXTT13=
PLAYORDER=
